<svg xmlns="http://www.w3.org/2000/svg" viewBox="0 0 64 64" width="64" height="64">
  <!-- 地球主体 -->
  <circle cx="32" cy="32" r="28" fill="#1e40af" stroke="#0369a1" stroke-width="2"/>
  
  <!-- 大陆板块 -->
  <path d="M15 20 Q25 15 35 20 Q45 18 50 25 Q48 35 35 40 Q25 38 15 35 Q12 28 15 20" fill="#0ea5e9"/>
  <path d="M18 45 Q28 42 38 45 Q48 48 52 55" fill="#0ea5e9" stroke="none"/>
  <circle cx="45" cy="18" r="4" fill="#0ea5e9"/>
  <circle cx="20" cy="48" r="3" fill="#0ea5e9"/>
  
  <!-- 经纬线 -->
  <ellipse cx="32" cy="32" rx="28" ry="14" fill="none" stroke="#1e40af" stroke-width="1" opacity="0.3"/>
  <ellipse cx="32" cy="32" rx="14" ry="28" fill="none" stroke="#1e40af" stroke-width="1" opacity="0.3"/>
  <circle cx="32" cy="32" r="20" fill="none" stroke="#1e40af" stroke-width="1" opacity="0.3"/>
  
  <!-- 高光效果 -->
  <ellipse cx="25" cy="25" rx="8" ry="12" fill="url(#earthGlow)" opacity="0.6"/>
  
  <!-- 渐变定义 -->
  <defs>
    <radialGradient id="earthGlow" cx="0.3" cy="0.3">
      <stop offset="0%" stop-color="#bfdbfe"/>
      <stop offset="100%" stop-color="#1e40af" stop-opacity="0"/>
    </radialGradient>
  </defs>
</svg> 